<svg width="87" height="79" viewBox="0 0 87 79" fill="none" xmlns="http://www.w3.org/2000/svg">
<path d="M7.83333 78.3333C5.67917 78.3333 3.83507 77.5663 2.30104 76.0323C0.767014 74.4983 0 72.6542 0 70.5V23.5C0 21.3458 0.767014 19.5017 2.30104 17.9677C3.83507 16.4337 5.67917 15.6667 7.83333 15.6667H20.1708L27.4167 7.83333H50.9167V15.6667H30.8437L23.6958 23.5H7.83333V70.5H70.5V35.25H78.3333V70.5C78.3333 72.6542 77.5663 74.4983 76.0323 76.0323C74.4983 77.5663 72.6542 78.3333 70.5 78.3333H7.83333ZM70.5 23.5V15.6667H62.6667V7.83333H70.5V0H78.3333V7.83333H86.1667V15.6667H78.3333V23.5H70.5ZM39.1667 64.625C44.0625 64.625 48.224 62.9115 51.651 59.4844C55.0781 56.0573 56.7917 51.8958 56.7917 47C56.7917 42.1042 55.0781 37.9427 51.651 34.5156C48.224 31.0885 44.0625 29.375 39.1667 29.375C34.2708 29.375 30.1094 31.0885 26.6823 34.5156C23.2552 37.9427 21.5417 42.1042 21.5417 47C21.5417 51.8958 23.2552 56.0573 26.6823 59.4844C30.1094 62.9115 34.2708 64.625 39.1667 64.625ZM39.1667 56.7917C36.425 56.7917 34.1076 55.8451 32.2146 53.9521C30.3215 52.059 29.375 49.7417 29.375 47C29.375 44.2583 30.3215 41.941 32.2146 40.0479C34.1076 38.1549 36.425 37.2083 39.1667 37.2083C41.9083 37.2083 44.2257 38.1549 46.1188 40.0479C48.0118 41.941 48.9583 44.2583 48.9583 47C48.9583 49.7417 48.0118 52.059 46.1188 53.9521C44.2257 55.8451 41.9083 56.7917 39.1667 56.7917Z" fill="#1C1B1F"/>
</svg>
