<svg width="92" height="92" viewBox="0 0 92 92" fill="none" xmlns="http://www.w3.org/2000/svg">
<mask id="mask0_472_1311" style="mask-type:alpha" maskUnits="userSpaceOnUse" x="0" y="0" width="92" height="92">
<rect width="92" height="92" fill="#D9D9D9"/>
</mask>
<g mask="url(#mask0_472_1311)">
<path d="M17.2503 46.4795C14.567 46.4795 12.2989 45.5531 10.4462 43.7003C8.59338 41.8476 7.66699 39.5795 7.66699 36.8962C7.66699 34.2128 8.59338 31.9448 10.4462 30.092C12.2989 28.2392 14.567 27.3128 17.2503 27.3128C19.9337 27.3128 22.2017 28.2392 24.0545 30.092C25.9073 31.9448 26.8337 34.2128 26.8337 36.8962C26.8337 39.5795 25.9073 41.8476 24.0545 43.7003C22.2017 45.5531 19.9337 46.4795 17.2503 46.4795ZM34.5003 31.1462C31.817 31.1462 29.5489 30.2198 27.6962 28.367C25.8434 26.5142 24.917 24.2462 24.917 21.5628C24.917 18.8795 25.8434 16.6114 27.6962 14.7587C29.5489 12.9059 31.817 11.9795 34.5003 11.9795C37.1837 11.9795 39.4517 12.9059 41.3045 14.7587C43.1573 16.6114 44.0837 18.8795 44.0837 21.5628C44.0837 24.2462 43.1573 26.5142 41.3045 28.367C39.4517 30.2198 37.1837 31.1462 34.5003 31.1462ZM57.5003 31.1462C54.817 31.1462 52.5489 30.2198 50.6962 28.367C48.8434 26.5142 47.917 24.2462 47.917 21.5628C47.917 18.8795 48.8434 16.6114 50.6962 14.7587C52.5489 12.9059 54.817 11.9795 57.5003 11.9795C60.1837 11.9795 62.4517 12.9059 64.3045 14.7587C66.1573 16.6114 67.0837 18.8795 67.0837 21.5628C67.0837 24.2462 66.1573 26.5142 64.3045 28.367C62.4517 30.2198 60.1837 31.1462 57.5003 31.1462ZM74.7503 46.4795C72.067 46.4795 69.7989 45.5531 67.9462 43.7003C66.0934 41.8476 65.167 39.5795 65.167 36.8962C65.167 34.2128 66.0934 31.9448 67.9462 30.092C69.7989 28.2392 72.067 27.3128 74.7503 27.3128C77.4337 27.3128 79.7017 28.2392 81.5545 30.092C83.4073 31.9448 84.3337 34.2128 84.3337 36.8962C84.3337 39.5795 83.4073 41.8476 81.5545 43.7003C79.7017 45.5531 77.4337 46.4795 74.7503 46.4795ZM25.492 84.8128C22.617 84.8128 20.2052 83.7108 18.2566 81.5066C16.308 79.3024 15.3337 76.6989 15.3337 73.6962C15.3337 70.3739 16.4677 67.467 18.7357 64.9753C21.0038 62.4837 23.2559 60.0239 25.492 57.5962C27.3448 55.6156 28.942 53.4594 30.2837 51.1274C31.6253 48.7955 33.2225 46.6073 35.0753 44.5628C36.4809 42.9017 38.11 41.5281 39.9628 40.442C41.8156 39.3559 43.8281 38.8128 46.0003 38.8128C48.1725 38.8128 50.185 39.3239 52.0378 40.3462C53.8906 41.3684 55.5198 42.71 56.9253 44.3712C58.7142 46.4156 60.2955 48.6198 61.6691 50.9837C63.0427 53.3476 64.6559 55.5517 66.5087 57.5962C68.7448 60.0239 70.9969 62.4837 73.2649 64.9753C75.533 67.467 76.667 70.3739 76.667 73.6962C76.667 76.6989 75.6927 79.3024 73.7441 81.5066C71.7955 83.7108 69.3837 84.8128 66.5087 84.8128C63.0587 84.8128 59.6406 84.5253 56.2545 83.9503C52.8684 83.3753 49.4503 83.0878 46.0003 83.0878C42.5503 83.0878 39.1323 83.3753 35.7462 83.9503C32.36 84.5253 28.942 84.8128 25.492 84.8128Z" fill="#1C1B1F"/>
</g>
</svg>
