<svg width="50" height="50" viewBox="0 0 50 50" fill="none" xmlns="http://www.w3.org/2000/svg">
<mask id="mask0_472_1672" style="mask-type:alpha" maskUnits="userSpaceOnUse" x="0" y="0" width="50" height="50">
<rect width="50" height="50" fill="#D9D9D9"/>
</mask>
<g mask="url(#mask0_472_1672)">
<path d="M8.33496 43.75V33.3333C8.33496 32.1875 8.74295 31.2066 9.55892 30.3906C10.3749 29.5747 11.3558 29.1667 12.5016 29.1667H37.5016C38.6475 29.1667 39.6284 29.5747 40.4443 30.3906C41.2603 31.2066 41.6683 32.1875 41.6683 33.3333V43.75H8.33496ZM18.7516 27.0833C15.8697 27.0833 13.4131 26.0677 11.3818 24.0365C9.35059 22.0052 8.33496 19.5486 8.33496 16.6667C8.33496 13.7847 9.35059 11.3281 11.3818 9.29687C13.4131 7.26562 15.8697 6.25 18.7516 6.25H31.2516C34.1336 6.25 36.5902 7.26562 38.6214 9.29687C40.6527 11.3281 41.6683 13.7847 41.6683 16.6667C41.6683 19.5486 40.6527 22.0052 38.6214 24.0365C36.5902 26.0677 34.1336 27.0833 31.2516 27.0833H18.7516ZM12.5016 39.5833H37.5016V33.3333H12.5016V39.5833ZM18.7516 22.9167H31.2516C32.9877 22.9167 34.4634 22.309 35.6787 21.0937C36.894 19.8785 37.5016 18.4028 37.5016 16.6667C37.5016 14.9306 36.894 13.4549 35.6787 12.2396C34.4634 11.0243 32.9877 10.4167 31.2516 10.4167H18.7516C17.0155 10.4167 15.5398 11.0243 14.3245 12.2396C13.1093 13.4549 12.5016 14.9306 12.5016 16.6667C12.5016 18.4028 13.1093 19.8785 14.3245 21.0937C15.5398 22.309 17.0155 22.9167 18.7516 22.9167ZM18.7516 18.75C19.3419 18.75 19.8367 18.5503 20.236 18.151C20.6353 17.7517 20.835 17.2569 20.835 16.6667C20.835 16.0764 20.6353 15.5816 20.236 15.1823C19.8367 14.783 19.3419 14.5833 18.7516 14.5833C18.1613 14.5833 17.6666 14.783 17.2673 15.1823C16.8679 15.5816 16.6683 16.0764 16.6683 16.6667C16.6683 17.2569 16.8679 17.7517 17.2673 18.151C17.6666 18.5503 18.1613 18.75 18.7516 18.75ZM31.2516 18.75C31.8419 18.75 32.3367 18.5503 32.736 18.151C33.1353 17.7517 33.335 17.2569 33.335 16.6667C33.335 16.0764 33.1353 15.5816 32.736 15.1823C32.3367 14.783 31.8419 14.5833 31.2516 14.5833C30.6613 14.5833 30.1666 14.783 29.7673 15.1823C29.3679 15.5816 29.1683 16.0764 29.1683 16.6667C29.1683 17.2569 29.3679 17.7517 29.7673 18.151C30.1666 18.5503 30.6613 18.75 31.2516 18.75Z" fill="#1C1B1F"/>
</g>
</svg>
