<svg width="95" height="95" viewBox="0 0 95 95" fill="none" xmlns="http://www.w3.org/2000/svg">
<mask id="mask0_472_772" style="mask-type:alpha" maskUnits="userSpaceOnUse" x="0" y="0" width="95" height="95">
<rect x="0.430664" y="0.764648" width="94.1273" height="94.1273" fill="#D9D9D9"/>
</mask>
<g mask="url(#mask0_472_772)">
<path d="M8.27441 36.062V24.2961C8.27441 22.139 9.04247 20.2924 10.5786 18.7563C12.1147 17.2202 13.9613 16.4521 16.1184 16.4521H78.8699C81.0269 16.4521 82.8735 17.2202 84.4096 18.7563C85.9457 20.2924 86.7138 22.139 86.7138 24.2961V45.8669H78.8699V24.2961H16.1184V36.062H8.27441ZM27.8843 67.4378C27.1652 67.4378 26.4789 67.258 25.8252 66.8985C25.1716 66.539 24.6813 65.9997 24.3545 65.2807L17.5891 51.7499H8.27441V43.9059H20.0403C20.7593 43.9059 21.4457 44.0857 22.0994 44.4452C22.753 44.8047 23.2433 45.344 23.5701 46.063L27.8843 54.6913L40.0424 30.3751C40.3692 29.7215 40.8594 29.2312 41.5131 28.9044C42.1668 28.5776 42.8531 28.4142 43.5721 28.4142C44.2912 28.4142 44.9775 28.5776 45.6312 28.9044C46.2848 29.2312 46.7751 29.7215 47.1019 30.3751L53.6712 43.5137C52.4946 44.2328 51.3671 44.9845 50.2885 45.7689C49.21 46.5533 48.2131 47.4357 47.298 48.4162L43.5721 40.9645L31.414 65.2807C31.0872 65.9997 30.597 66.539 29.9433 66.8985C29.2896 67.258 28.6033 67.4378 27.8843 67.4378ZM42.2975 79.2037H16.1184C13.9613 79.2037 12.1147 78.4356 10.5786 76.8995C9.04247 75.3634 8.27441 73.5168 8.27441 71.3597V59.5938H16.1184V71.3597H39.9443C40.1404 72.7324 40.4346 74.0724 40.8268 75.3797C41.219 76.6871 41.7092 77.9617 42.2975 79.2037ZM67.104 87.0476C61.6786 87.0476 57.0539 85.1356 53.23 81.3117C49.4061 77.4878 47.4941 72.8631 47.4941 67.4378C47.4941 62.0124 49.4061 57.3877 53.23 53.5638C57.0539 49.7399 61.6786 47.8279 67.104 47.8279C72.5293 47.8279 77.154 49.7399 80.9779 53.5638C84.8018 57.3877 86.7138 62.0124 86.7138 67.4378C86.7138 72.8631 84.8018 77.4878 80.9779 81.3117C77.154 85.1356 72.5293 87.0476 67.104 87.0476ZM67.8883 69.3987L76.8108 60.4763L74.0654 57.7309L65.143 66.6534L67.8883 69.3987Z" fill="#1C1B1F"/>
</g>
</svg>
