<svg width="115" height="115" viewBox="0 0 115 115" fill="none" xmlns="http://www.w3.org/2000/svg">
<mask id="mask0_472_1251" style="mask-type:alpha" maskUnits="userSpaceOnUse" x="0" y="0" width="115" height="115">
<rect width="115" height="115" fill="#D9D9D9"/>
</mask>
<g mask="url(#mask0_472_1251)">
<path d="M38.3337 91.0413H76.667V81.458H38.3337V91.0413ZM38.3337 76.6663H76.667V67.083H38.3337V76.6663ZM57.5003 58.9372C62.7712 54.1455 67.2833 49.8929 71.0368 46.1794C74.7903 42.4658 76.667 38.5726 76.667 34.4997C76.667 31.6247 75.6288 29.149 73.5524 27.0726C71.476 24.9962 69.0003 23.958 66.1253 23.958C64.4482 23.958 62.8311 24.2974 61.2738 24.9762C59.7165 25.6551 58.4587 26.5934 57.5003 27.7913C56.542 26.5934 55.2842 25.6551 53.7269 24.9762C52.1696 24.2974 50.5524 23.958 48.8753 23.958C46.0003 23.958 43.5246 24.9962 41.4482 27.0726C39.3719 29.149 38.3337 31.6247 38.3337 34.4997C38.3337 38.5726 40.1505 42.4059 43.7842 45.9997C47.4179 49.5934 51.9899 53.9059 57.5003 58.9372ZM86.2503 105.416H28.7503C26.1149 105.416 23.8588 104.478 21.9821 102.601C20.1054 100.725 19.167 98.4684 19.167 95.833V19.1663C19.167 16.5309 20.1054 14.2748 21.9821 12.3981C23.8588 10.5214 26.1149 9.58301 28.7503 9.58301H86.2503C88.8857 9.58301 91.1418 10.5214 93.0186 12.3981C94.8953 14.2748 95.8337 16.5309 95.8337 19.1663V95.833C95.8337 98.4684 94.8953 100.725 93.0186 102.601C91.1418 104.478 88.8857 105.416 86.2503 105.416ZM28.7503 95.833H86.2503V19.1663H28.7503V95.833Z" fill="#1C1B1F"/>
</g>
</svg>
