<svg width="231" height="54" viewBox="0 0 231 54" fill="none" xmlns="http://www.w3.org/2000/svg">
<rect x="0.665458" y="0.665458" width="228.877" height="51.9058" rx="25.9529" fill="white"/>
<rect x="0.665458" y="0.665458" width="228.877" height="51.9058" rx="25.9529" stroke="#747775" stroke-width="1.33092"/>
<path fill-rule="evenodd" clip-rule="evenodd" d="M39.4483 26.8905C39.4483 26.0412 39.3721 25.2245 39.2306 24.4404H27.9492V29.0738H34.3957C34.118 30.5711 33.2741 31.8397 32.0055 32.6891V35.6945H35.8766C38.1416 33.6092 39.4483 30.5384 39.4483 26.8905Z" fill="#4285F4"/>
<path fill-rule="evenodd" clip-rule="evenodd" d="M27.9493 38.5969C31.1834 38.5969 33.8949 37.5243 35.8767 35.6949L32.0056 32.6895C30.933 33.4082 29.5609 33.8328 27.9493 33.8328C24.8295 33.8328 22.1889 31.7258 21.2469 28.8945H17.2451V31.998C19.2161 35.9127 23.2669 38.5969 27.9493 38.5969Z" fill="#34A853"/>
<path fill-rule="evenodd" clip-rule="evenodd" d="M21.2466 28.8944C21.007 28.1758 20.8709 27.4081 20.8709 26.6186C20.8709 25.8291 21.007 25.0614 21.2466 24.3427V21.2393H17.2448C16.4335 22.8563 15.9707 24.6857 15.9707 26.6186C15.9707 28.5514 16.4335 30.3808 17.2448 31.9979L21.2466 28.8944Z" fill="#FBBC05"/>
<path fill-rule="evenodd" clip-rule="evenodd" d="M27.9493 19.4037C29.7079 19.4037 31.2869 20.0081 32.5283 21.195L35.9639 17.7594C33.8894 15.8266 31.178 14.6396 27.9493 14.6396C23.2669 14.6396 19.2161 17.3239 17.2451 21.2386L21.2469 24.342C22.1889 21.5108 24.8295 19.4037 27.9493 19.4037Z" fill="#EA4335"/>
<path d="M61.552 29.7064C61.552 29.4334 61.5095 29.1908 61.4246 28.9785C61.3457 28.7663 61.2032 28.5722 60.997 28.3963C60.7908 28.2204 60.4996 28.0505 60.1236 27.8868C59.7536 27.7169 59.2805 27.5441 58.7043 27.3682C58.0735 27.1741 57.4912 26.9588 56.9574 26.7222C56.4297 26.4796 55.9688 26.2006 55.5745 25.8852C55.1803 25.5637 54.874 25.1968 54.6556 24.7843C54.4373 24.3658 54.3281 23.8836 54.3281 23.3377C54.3281 22.7979 54.4403 22.3066 54.6647 21.8639C54.8952 21.4211 55.2197 21.039 55.6382 20.7175C56.0628 20.39 56.5632 20.1383 57.1394 19.9624C57.7156 19.7804 58.3525 19.6894 59.05 19.6894C60.0326 19.6894 60.8787 19.8714 61.5884 20.2353C62.3041 20.5992 62.853 21.0875 63.2351 21.7001C63.6233 22.3127 63.8174 22.989 63.8174 23.729H61.552C61.552 23.2923 61.4579 22.9071 61.2699 22.5735C61.088 22.2338 60.809 21.967 60.4329 21.7729C60.0629 21.5788 59.5928 21.4817 59.0227 21.4817C58.4829 21.4817 58.034 21.5636 57.6762 21.7274C57.3183 21.8912 57.0514 22.1125 56.8756 22.3915C56.6997 22.6706 56.6117 22.986 56.6117 23.3377C56.6117 23.5864 56.6693 23.8139 56.7846 24.0201C56.8998 24.2203 57.0757 24.4083 57.3123 24.5842C57.5488 24.754 57.846 24.9147 58.2039 25.0664C58.5617 25.218 58.9833 25.3636 59.4685 25.5031C60.2024 25.7214 60.8423 25.9641 61.3882 26.2309C61.9341 26.4917 62.389 26.7889 62.7529 27.1225C63.1168 27.4561 63.3898 27.8352 63.5717 28.2598C63.7537 28.6783 63.8447 29.1544 63.8447 29.6882C63.8447 30.2462 63.7325 30.7496 63.508 31.1985C63.2836 31.6412 62.9622 32.0203 62.5436 32.3357C62.1312 32.6451 61.6338 32.8846 61.0516 33.0545C60.4754 33.2182 59.8324 33.3001 59.1228 33.3001C58.4859 33.3001 57.8581 33.2152 57.2395 33.0454C56.6269 32.8755 56.0689 32.6178 55.5654 32.272C55.062 31.9203 54.6617 31.4835 54.3645 30.9619C54.0673 30.4342 53.9187 29.8186 53.9187 29.115H56.2023C56.2023 29.5457 56.2751 29.9126 56.4207 30.2159C56.5723 30.5192 56.7815 30.7678 57.0484 30.9619C57.3153 31.1499 57.6246 31.2895 57.9764 31.3804C58.3343 31.4714 58.7164 31.5169 59.1228 31.5169C59.6565 31.5169 60.1023 31.4411 60.4602 31.2895C60.8241 31.1378 61.0971 30.9255 61.279 30.6526C61.461 30.3796 61.552 30.0642 61.552 29.7064ZM67.9934 23.2741V33.1182H65.7917V23.2741H67.9934ZM65.6461 20.6902C65.6461 20.3566 65.7553 20.0806 65.9736 19.8623C66.198 19.6379 66.5074 19.5257 66.9016 19.5257C67.2898 19.5257 67.5961 19.6379 67.8205 19.8623C68.0449 20.0806 68.1572 20.3566 68.1572 20.6902C68.1572 21.0177 68.0449 21.2907 67.8205 21.509C67.5961 21.7274 67.2898 21.8366 66.9016 21.8366C66.5074 21.8366 66.198 21.7274 65.9736 21.509C65.7553 21.2907 65.6461 21.0177 65.6461 20.6902ZM76.7002 23.2741H78.6927V32.8452C78.6927 33.7308 78.5047 34.4829 78.1286 35.1015C77.7526 35.7202 77.2279 36.1903 76.5547 36.5117C75.8814 36.8393 75.102 37.003 74.2165 37.003C73.8404 37.003 73.4219 36.9484 72.9609 36.8393C72.506 36.7301 72.0633 36.5542 71.6326 36.3116C71.208 36.075 70.8532 35.7627 70.5681 35.3745L71.5962 34.0826C71.948 34.5011 72.3362 34.8074 72.7608 35.0015C73.1853 35.1956 73.6312 35.2926 74.0982 35.2926C74.6016 35.2926 75.0292 35.1986 75.381 35.0106C75.7389 34.8286 76.0148 34.5587 76.2089 34.2008C76.403 33.843 76.5001 33.4063 76.5001 32.8907V25.5031L76.7002 23.2741ZM70.0132 28.3053V28.1142C70.0132 27.3682 70.1041 26.6889 70.2861 26.0763C70.4681 25.4576 70.7289 24.9269 71.0685 24.4841C71.4082 24.0353 71.8206 23.6926 72.3059 23.456C72.7911 23.2134 73.34 23.0921 73.9526 23.0921C74.5895 23.0921 75.1323 23.2073 75.5812 23.4378C76.0361 23.6683 76.4152 23.9989 76.7184 24.4295C77.0217 24.8541 77.2582 25.3636 77.4281 25.958C77.604 26.5463 77.7344 27.2014 77.8193 27.9232V28.5327C77.7404 29.2363 77.607 29.8793 77.419 30.4615C77.231 31.0438 76.9823 31.5472 76.6729 31.9718C76.3636 32.3964 75.9815 32.7239 75.5266 32.9544C75.0777 33.1849 74.547 33.3001 73.9344 33.3001C73.334 33.3001 72.7911 33.1758 72.3059 32.9271C71.8267 32.6784 71.4143 32.3297 71.0685 31.8808C70.7289 31.432 70.4681 30.9043 70.2861 30.2978C70.1041 29.6852 70.0132 29.021 70.0132 28.3053ZM72.2058 28.1142V28.3053C72.2058 28.7541 72.2482 29.1726 72.3332 29.5608C72.4241 29.949 72.5606 30.2917 72.7426 30.5889C72.9306 30.88 73.1672 31.1105 73.4522 31.2804C73.7434 31.4441 74.0861 31.526 74.4803 31.526C74.9959 31.526 75.4174 31.4168 75.7449 31.1985C76.0785 30.9801 76.3333 30.6859 76.5092 30.316C76.6911 29.9399 76.8185 29.5214 76.8913 29.0604V27.4137C76.8549 27.0558 76.7791 26.7222 76.6638 26.4129C76.5547 26.1036 76.4061 25.8336 76.218 25.6032C76.03 25.3666 75.7935 25.1847 75.5084 25.0573C75.2233 24.9238 74.8867 24.8571 74.4985 24.8571C74.1043 24.8571 73.7616 24.942 73.4704 25.1119C73.1793 25.2817 72.9397 25.5152 72.7517 25.8124C72.5697 26.1096 72.4332 26.4553 72.3423 26.8496C72.2513 27.2438 72.2058 27.6654 72.2058 28.1142ZM83.1417 25.3757V33.1182H80.949V23.2741H83.0143L83.1417 25.3757ZM82.7504 27.8322L82.0408 27.8231C82.0469 27.1256 82.1439 26.4857 82.3319 25.9034C82.526 25.3211 82.7929 24.8207 83.1326 24.4022C83.4783 23.9837 83.8907 23.6622 84.3699 23.4378C84.8491 23.2073 85.3828 23.0921 85.9712 23.0921C86.4443 23.0921 86.8719 23.1588 87.254 23.2923C87.6422 23.4196 87.9727 23.6289 88.2457 23.92C88.5247 24.2112 88.737 24.5902 88.8825 25.0573C89.0281 25.5182 89.1009 26.0854 89.1009 26.7586V33.1182H86.8992V26.7495C86.8992 26.2764 86.8294 25.9034 86.6899 25.6305C86.5565 25.3514 86.3593 25.1543 86.0985 25.0391C85.8438 24.9178 85.5254 24.8571 85.1432 24.8571C84.7672 24.8571 84.4306 24.936 84.1334 25.0937C83.8362 25.2514 83.5844 25.4667 83.3782 25.7396C83.1781 26.0126 83.0234 26.328 82.9142 26.6858C82.805 27.0437 82.7504 27.4258 82.7504 27.8322ZM98.3263 23.2741V33.1182H96.1246V23.2741H98.3263ZM95.979 20.6902C95.979 20.3566 96.0882 20.0806 96.3066 19.8623C96.531 19.6379 96.8403 19.5257 97.2346 19.5257C97.6228 19.5257 97.9291 19.6379 98.1535 19.8623C98.3779 20.0806 98.4901 20.3566 98.4901 20.6902C98.4901 21.0177 98.3779 21.2907 98.1535 21.509C97.9291 21.7274 97.6228 21.8366 97.2346 21.8366C96.8403 21.8366 96.531 21.7274 96.3066 21.509C96.0882 21.2907 95.979 21.0177 95.979 20.6902ZM102.903 25.3757V33.1182H100.71V23.2741H102.775L102.903 25.3757ZM102.511 27.8322L101.802 27.8231C101.808 27.1256 101.905 26.4857 102.093 25.9034C102.287 25.3211 102.554 24.8207 102.894 24.4022C103.239 23.9837 103.652 23.6622 104.131 23.4378C104.61 23.2073 105.144 23.0921 105.732 23.0921C106.205 23.0921 106.633 23.1588 107.015 23.2923C107.403 23.4196 107.734 23.6289 108.007 23.92C108.286 24.2112 108.498 24.5902 108.644 25.0573C108.789 25.5182 108.862 26.0854 108.862 26.7586V33.1182H106.66V26.7495C106.66 26.2764 106.59 25.9034 106.451 25.6305C106.317 25.3514 106.12 25.1543 105.86 25.0391C105.605 24.9178 105.286 24.8571 104.904 24.8571C104.528 24.8571 104.192 24.936 103.894 25.0937C103.597 25.2514 103.345 25.4667 103.139 25.7396C102.939 26.0126 102.784 26.328 102.675 26.6858C102.566 27.0437 102.511 27.4258 102.511 27.8322ZM118.415 30.9346L120.689 23.2741H122.09L121.708 25.5668L119.416 33.1182H118.16L118.415 30.9346ZM117.077 23.2741L118.852 30.971L118.997 33.1182H117.596L114.93 23.2741H117.077ZM124.219 30.88L125.939 23.2741H128.077L125.42 33.1182H124.019L124.219 30.88ZM122.327 23.2741L124.574 30.8436L124.856 33.1182H123.601L121.281 25.5577L120.899 23.2741H122.327ZM131.916 23.2741V33.1182H129.715V23.2741H131.916ZM129.569 20.6902C129.569 20.3566 129.678 20.0806 129.897 19.8623C130.121 19.6379 130.43 19.5257 130.825 19.5257C131.213 19.5257 131.519 19.6379 131.744 19.8623C131.968 20.0806 132.08 20.3566 132.08 20.6902C132.08 21.0177 131.968 21.2907 131.744 21.509C131.519 21.7274 131.213 21.8366 130.825 21.8366C130.43 21.8366 130.121 21.7274 129.897 21.509C129.678 21.2907 129.569 21.0177 129.569 20.6902ZM138.831 23.2741V24.8753H133.281V23.2741H138.831ZM134.882 20.8631H137.075V30.3978C137.075 30.7011 137.117 30.9346 137.202 31.0984C137.293 31.2561 137.418 31.3622 137.575 31.4168C137.733 31.4714 137.918 31.4987 138.13 31.4987C138.282 31.4987 138.428 31.4896 138.567 31.4714C138.707 31.4532 138.819 31.435 138.904 31.4168L138.913 33.0909C138.731 33.1455 138.519 33.194 138.276 33.2364C138.039 33.2789 137.766 33.3001 137.457 33.3001C136.954 33.3001 136.508 33.2122 136.12 33.0363C135.732 32.8543 135.428 32.5601 135.21 32.1538C134.992 31.7474 134.882 31.2076 134.882 30.5343V20.8631ZM142.688 19.1435V33.1182H140.505V19.1435H142.688ZM142.306 27.8322L141.597 27.8231C141.603 27.1438 141.697 26.516 141.879 25.9398C142.067 25.3636 142.328 24.8632 142.661 24.4386C143.001 24.008 143.407 23.6774 143.88 23.4469C144.353 23.2104 144.878 23.0921 145.454 23.0921C145.94 23.0921 146.376 23.1588 146.764 23.2923C147.159 23.4257 147.498 23.641 147.783 23.9382C148.068 24.2294 148.284 24.6115 148.429 25.0846C148.581 25.5516 148.657 26.1218 148.657 26.795V33.1182H146.455V26.7768C146.455 26.3037 146.385 25.9277 146.246 25.6487C146.112 25.3696 145.915 25.1695 145.654 25.0482C145.394 24.9208 145.075 24.8571 144.699 24.8571C144.305 24.8571 143.956 24.936 143.653 25.0937C143.356 25.2514 143.107 25.4667 142.907 25.7396C142.707 26.0126 142.555 26.328 142.452 26.6858C142.355 27.0437 142.306 27.4258 142.306 27.8322ZM165.907 26.3492V31.4077C165.719 31.6564 165.425 31.9294 165.024 32.2266C164.63 32.5177 164.105 32.7694 163.45 32.9817C162.795 33.194 161.979 33.3001 161.003 33.3001C160.172 33.3001 159.411 33.1606 158.719 32.8816C158.028 32.5965 157.43 32.1811 156.927 31.6352C156.43 31.0893 156.044 30.4251 155.772 29.6427C155.499 28.8542 155.362 27.9565 155.362 26.9497V26.0308C155.362 25.03 155.486 24.1384 155.735 23.3559C155.99 22.5674 156.354 21.9003 156.827 21.3544C157.3 20.8085 157.87 20.396 158.537 20.117C159.211 19.832 159.972 19.6894 160.821 19.6894C161.907 19.6894 162.804 19.8714 163.514 20.2353C164.23 20.5932 164.782 21.0905 165.17 21.7274C165.558 22.3643 165.804 23.0921 165.907 23.9109H163.669C163.596 23.45 163.453 23.0375 163.241 22.6736C163.035 22.3097 162.738 22.0246 162.349 21.8184C161.967 21.6061 161.47 21.4999 160.857 21.4999C160.33 21.4999 159.866 21.6 159.465 21.8002C159.065 22.0003 158.731 22.2945 158.465 22.6827C158.204 23.0709 158.007 23.544 157.873 24.102C157.74 24.66 157.673 25.2969 157.673 26.0126V26.9497C157.673 27.6775 157.749 28.3235 157.9 28.8876C158.058 29.4516 158.283 29.9278 158.574 30.316C158.871 30.7041 159.232 30.9983 159.656 31.1985C160.081 31.3926 160.56 31.4896 161.094 31.4896C161.615 31.4896 162.043 31.4472 162.377 31.3622C162.71 31.2713 162.974 31.1651 163.168 31.0438C163.368 30.9164 163.523 30.7951 163.632 30.6799V28.0505H160.876V26.3492H165.907ZM167.799 28.3053V28.096C167.799 27.3864 167.902 26.7283 168.108 26.1218C168.315 25.5091 168.612 24.9784 169 24.5296C169.394 24.0747 169.874 23.7229 170.438 23.4742C171.008 23.2195 171.651 23.0921 172.366 23.0921C173.088 23.0921 173.731 23.2195 174.295 23.4742C174.865 23.7229 175.348 24.0747 175.742 24.5296C176.136 24.9784 176.436 25.5091 176.642 26.1218C176.849 26.7283 176.952 27.3864 176.952 28.096V28.3053C176.952 29.0149 176.849 29.673 176.642 30.2796C176.436 30.8861 176.136 31.4168 175.742 31.8717C175.348 32.3206 174.868 32.6724 174.304 32.9271C173.74 33.1758 173.1 33.3001 172.385 33.3001C171.663 33.3001 171.017 33.1758 170.447 32.9271C169.883 32.6724 169.403 32.3206 169.009 31.8717C168.615 31.4168 168.315 30.8861 168.108 30.2796C167.902 29.673 167.799 29.0149 167.799 28.3053ZM169.992 28.096V28.3053C169.992 28.7481 170.037 29.1666 170.128 29.5608C170.219 29.9551 170.362 30.3008 170.556 30.598C170.75 30.8952 170.999 31.1287 171.302 31.2986C171.605 31.4684 171.966 31.5533 172.385 31.5533C172.791 31.5533 173.143 31.4684 173.44 31.2986C173.743 31.1287 173.992 30.8952 174.186 30.598C174.38 30.3008 174.523 29.9551 174.614 29.5608C174.711 29.1666 174.759 28.7481 174.759 28.3053V28.096C174.759 27.6593 174.711 27.2469 174.614 26.8587C174.523 26.4644 174.377 26.1157 174.177 25.8124C173.983 25.5091 173.734 25.2726 173.431 25.1028C173.134 24.9269 172.779 24.8389 172.366 24.8389C171.954 24.8389 171.596 24.9269 171.293 25.1028C170.996 25.2726 170.75 25.5091 170.556 25.8124C170.362 26.1157 170.219 26.4644 170.128 26.8587C170.037 27.2469 169.992 27.6593 169.992 28.096ZM178.371 28.3053V28.096C178.371 27.3864 178.474 26.7283 178.68 26.1218C178.887 25.5091 179.184 24.9784 179.572 24.5296C179.966 24.0747 180.445 23.7229 181.01 23.4742C181.58 23.2195 182.223 23.0921 182.938 23.0921C183.66 23.0921 184.303 23.2195 184.867 23.4742C185.437 23.7229 185.919 24.0747 186.314 24.5296C186.708 24.9784 187.008 25.5091 187.214 26.1218C187.421 26.7283 187.524 27.3864 187.524 28.096V28.3053C187.524 29.0149 187.421 29.673 187.214 30.2796C187.008 30.8861 186.708 31.4168 186.314 31.8717C185.919 32.3206 185.44 32.6724 184.876 32.9271C184.312 33.1758 183.672 33.3001 182.957 33.3001C182.235 33.3001 181.589 33.1758 181.019 32.9271C180.455 32.6724 179.975 32.3206 179.581 31.8717C179.187 31.4168 178.887 30.8861 178.68 30.2796C178.474 29.673 178.371 29.0149 178.371 28.3053ZM180.564 28.096V28.3053C180.564 28.7481 180.609 29.1666 180.7 29.5608C180.791 29.9551 180.934 30.3008 181.128 30.598C181.322 30.8952 181.571 31.1287 181.874 31.2986C182.177 31.4684 182.538 31.5533 182.957 31.5533C183.363 31.5533 183.715 31.4684 184.012 31.2986C184.315 31.1287 184.564 30.8952 184.758 30.598C184.952 30.3008 185.095 29.9551 185.186 29.5608C185.283 29.1666 185.331 28.7481 185.331 28.3053V28.096C185.331 27.6593 185.283 27.2469 185.186 26.8587C185.095 26.4644 184.949 26.1157 184.749 25.8124C184.555 25.5091 184.306 25.2726 184.003 25.1028C183.706 24.9269 183.351 24.8389 182.938 24.8389C182.526 24.8389 182.168 24.9269 181.865 25.1028C181.568 25.2726 181.322 25.5091 181.128 25.8124C180.934 26.1157 180.791 26.4644 180.7 26.8587C180.609 27.2469 180.564 27.6593 180.564 28.096ZM195.667 23.2741H197.659V32.8452C197.659 33.7308 197.471 34.4829 197.095 35.1015C196.719 35.7202 196.194 36.1903 195.521 36.5117C194.848 36.8393 194.068 37.003 193.183 37.003C192.807 37.003 192.388 36.9484 191.927 36.8393C191.472 36.7301 191.03 36.5542 190.599 36.3116C190.174 36.075 189.819 35.7627 189.534 35.3745L190.563 34.0826C190.914 34.5011 191.302 34.8074 191.727 35.0015C192.152 35.1956 192.597 35.2926 193.064 35.2926C193.568 35.2926 193.996 35.1986 194.347 35.0106C194.705 34.8286 194.981 34.5587 195.175 34.2008C195.369 33.843 195.466 33.4063 195.466 32.8907V25.5031L195.667 23.2741ZM188.979 28.3053V28.1142C188.979 27.3682 189.07 26.6889 189.252 26.0763C189.434 25.4576 189.695 24.9269 190.035 24.4841C190.374 24.0353 190.787 23.6926 191.272 23.456C191.757 23.2134 192.306 23.0921 192.919 23.0921C193.556 23.0921 194.099 23.2073 194.547 23.4378C195.002 23.6683 195.381 23.9989 195.685 24.4295C195.988 24.8541 196.225 25.3636 196.394 25.958C196.57 26.5463 196.701 27.2014 196.786 27.9232V28.5327C196.707 29.2363 196.573 29.8793 196.385 30.4615C196.197 31.0438 195.949 31.5472 195.639 31.9718C195.33 32.3964 194.948 32.7239 194.493 32.9544C194.044 33.1849 193.513 33.3001 192.901 33.3001C192.3 33.3001 191.757 33.1758 191.272 32.9271C190.793 32.6784 190.381 32.3297 190.035 31.8808C189.695 31.432 189.434 30.9043 189.252 30.2978C189.07 29.6852 188.979 29.021 188.979 28.3053ZM191.172 28.1142V28.3053C191.172 28.7541 191.215 29.1726 191.299 29.5608C191.39 29.949 191.527 30.2917 191.709 30.5889C191.897 30.88 192.133 31.1105 192.419 31.2804C192.71 31.4441 193.052 31.526 193.447 31.526C193.962 31.526 194.384 31.4168 194.711 31.1985C195.045 30.9801 195.3 30.6859 195.475 30.316C195.657 29.9399 195.785 29.5214 195.858 29.0604V27.4137C195.821 27.0558 195.745 26.7222 195.63 26.4129C195.521 26.1036 195.372 25.8336 195.184 25.6032C194.996 25.3666 194.76 25.1847 194.475 25.0573C194.19 24.9238 193.853 24.8571 193.465 24.8571C193.071 24.8571 192.728 24.942 192.437 25.1119C192.146 25.2817 191.906 25.5152 191.718 25.8124C191.536 26.1096 191.4 26.4553 191.309 26.8496C191.218 27.2438 191.172 27.6654 191.172 28.1142ZM202.281 19.1435V33.1182H200.079V19.1435H202.281ZM209.022 33.3001C208.295 33.3001 207.637 33.1819 207.048 32.9453C206.466 32.7027 205.969 32.3661 205.556 31.9354C205.15 31.5048 204.837 30.9983 204.619 30.416C204.401 29.8338 204.291 29.206 204.291 28.5327V28.1688C204.291 27.3985 204.404 26.701 204.628 26.0763C204.853 25.4515 205.165 24.9178 205.565 24.475C205.966 24.0262 206.439 23.6835 206.985 23.4469C207.53 23.2104 208.122 23.0921 208.759 23.0921C209.462 23.0921 210.078 23.2104 210.606 23.4469C211.133 23.6835 211.57 24.0171 211.916 24.4477C212.267 24.8723 212.528 25.3787 212.698 25.9671C212.874 26.5554 212.962 27.2044 212.962 27.9141V28.8512H205.356V27.2772H210.797V27.1043C210.784 26.7101 210.706 26.3401 210.56 25.9944C210.421 25.6487 210.205 25.3696 209.914 25.1574C209.623 24.9451 209.235 24.8389 208.75 24.8389C208.386 24.8389 208.061 24.9178 207.776 25.0755C207.497 25.2271 207.264 25.4485 207.076 25.7396C206.887 26.0308 206.742 26.3826 206.639 26.795C206.542 27.2014 206.493 27.6593 206.493 28.1688V28.5327C206.493 28.9634 206.551 29.3637 206.666 29.7337C206.787 30.0976 206.963 30.416 207.194 30.689C207.424 30.9619 207.703 31.1772 208.031 31.3349C208.358 31.4866 208.731 31.5624 209.15 31.5624C209.678 31.5624 210.148 31.4563 210.56 31.244C210.973 31.0317 211.33 30.7314 211.634 30.3433L212.789 31.4623C212.577 31.7717 212.301 32.0689 211.961 32.3539C211.622 32.6329 211.206 32.8604 210.715 33.0363C210.229 33.2122 209.665 33.3001 209.022 33.3001Z" fill="#1F1F1F"/>
</svg>
