<svg width="50" height="50" viewBox="0 0 50 50" fill="none" xmlns="http://www.w3.org/2000/svg">
<mask id="mask0_472_1669" style="mask-type:alpha" maskUnits="userSpaceOnUse" x="0" y="0" width="50" height="50">
<rect width="50" height="50" fill="#D9D9D9"/>
</mask>
<g mask="url(#mask0_472_1669)">
<path d="M24.9997 25.0003C26.1455 25.0003 27.1264 24.5923 27.9424 23.7764C28.7584 22.9604 29.1663 21.9795 29.1663 20.8337C29.1663 19.6878 28.7584 18.7069 27.9424 17.891C27.1264 17.075 26.1455 16.667 24.9997 16.667C23.8538 16.667 22.8729 17.075 22.057 17.891C21.241 18.7069 20.833 19.6878 20.833 20.8337C20.833 21.9795 21.241 22.9604 22.057 23.7764C22.8729 24.5923 23.8538 25.0003 24.9997 25.0003ZM24.9997 45.8337C19.4094 41.0767 15.2341 36.6583 12.4736 32.5785C9.71322 28.4986 8.33301 24.7225 8.33301 21.2503C8.33301 16.042 10.0084 11.8927 13.3591 8.80241C16.7097 5.71213 20.59 4.16699 24.9997 4.16699C29.4094 4.16699 33.2896 5.71213 36.6403 8.80241C39.991 11.8927 41.6663 16.042 41.6663 21.2503C41.6663 24.7225 40.2861 28.4986 37.5257 32.5785C34.7653 36.6583 30.59 41.0767 24.9997 45.8337Z" fill="#1C1B1F"/>
</g>
</svg>
