<svg width="28" height="41" viewBox="0 0 28 41" fill="none" xmlns="http://www.w3.org/2000/svg">
<path d="M25.7596 22.3591H25.7696C25.7696 22.3591 21.9996 27.8891 18.8296 31.9991C16.0896 35.5491 15.2896 38.5891 15.0596 40.0591C14.9696 40.5991 14.5296 40.9991 13.9996 40.9991C13.4696 40.9991 13.0296 40.5991 12.9396 40.0591C12.7096 38.5891 11.9096 35.5491 9.16965 31.9991C8.74965 31.4491 8.31965 30.8791 7.88965 30.2991L18.2396 17.9991L26.5696 8.11914C27.4896 10.0491 27.9996 12.2091 27.9996 14.4991C27.9996 17.3991 27.1696 20.0891 25.7596 22.3591Z" fill="#BF360C"/>
<path d="M18.2404 18L7.89043 30.3C5.07043 26.52 2.23043 22.36 2.23043 22.36H2.24043C1.94043 21.88 1.67043 21.39 1.44043 20.88L9.76043 11C8.97043 11.95 8.50043 13.17 8.50043 14.5C8.50043 17.54 10.9604 20 14.0004 20C15.7104 20 17.2404 19.22 18.2404 18Z" fill="#BF360C"/>
<path d="M18.3995 0.74L9.82953 10.92L3.26953 5.2C5.82953 2.02 9.68953 0 13.9995 0C15.5395 0 17.0195 0.26 18.3995 0.74Z" fill="#BF360C"/>
<path d="M9.83 10.9192L9.76 10.9992L1.44 20.8792C0.52 18.9492 0 16.7892 0 14.4992C0 10.9592 1.23 7.70922 3.27 5.19922L9.83 10.9192Z" fill="#BF360C"/>
<path d="M18.2398 18.0002C19.0298 17.0502 19.4998 15.8302 19.4998 14.5002C19.4998 11.4602 17.0398 9.00023 13.9998 9.00023C12.2898 9.00023 10.7598 9.78023 9.75977 11.0002L18.3998 0.740234C21.9898 1.96023 24.9298 4.65023 26.5698 8.12023L18.2398 18.0002Z" fill="#BF360C"/>
</svg>
